<?xml version="1.0" standalone="no"?>
<!DOCTYPE svg PUBLIC "-//W3C//DTD SVG 20010904//EN"
 "http://www.w3.org/TR/2001/REC-SVG-20010904/DTD/svg10.dtd">
<svg version="1.0" xmlns="http://www.w3.org/2000/svg"
 width="1024.000000pt" height="1024.000000pt" viewBox="0 0 1024.000000 1024.000000"
 preserveAspectRatio="xMidYMid meet">

<g transform="translate(0.000000,1024.000000) scale(0.100000,-0.100000)"
fill="#000000" stroke="none">
<path d="M5084 8148 c-48 -125 -61 -151 -73 -144 -3 2 -42 0 -86 -6 -44 -5
-107 -13 -140 -16 l-60 -7 118 -94 c82 -66 116 -99 113 -110 -8 -24 -54 -241
-51 -241 1 0 54 31 118 70 l117 70 121 -86 c67 -47 123 -83 125 -81 2 2 -10
55 -26 118 -50 188 -58 161 70 262 62 49 110 90 108 93 -4 3 -248 34 -274 34
-10 0 -114 218 -114 240 0 5 -4 11 -9 15 -5 3 -31 -50 -57 -117z"/>
<path d="M4909 7322 c-107 -60 -279 -157 -384 -216 -104 -60 -287 -162 -405
-228 -118 -67 -223 -130 -232 -140 -24 -27 -23 -44 7 -73 21 -22 33 -25 90
-25 l66 0 -3 -125 -3 -126 -657 1 -656 0 -22 -27 c-12 -16 -28 -44 -36 -63 -8
-19 -51 -115 -96 -212 -46 -100 -78 -183 -75 -192 5 -12 21 -16 64 -16 l58 0
0 -745 0 -745 -78 0 c-64 0 -80 -3 -97 -20 -24 -24 -27 -82 -4 -104 14 -14
271 -16 2683 -16 2572 0 2668 1 2684 18 23 25 21 64 -4 96 -19 24 -26 26 -100
26 l-79 0 0 745 0 745 60 0 c45 0 62 4 67 15 8 21 -195 462 -221 481 -17 12
-119 14 -663 14 l-643 0 0 125 0 125 55 0 c46 0 60 4 80 25 57 56 55 57 -335
272 -56 31 -462 257 -605 338 -192 107 -284 155 -301 155 -11 0 -108 -49 -215
-108z m-234 -904 c3 -13 4 -97 3 -188 l-3 -165 -134 -3 c-90 -2 -138 1 -147 9
-19 15 -20 339 -2 357 8 8 55 12 145 12 129 0 133 -1 138 -22z m593 10 c8 -8
12 -62 12 -178 0 -116 -4 -170 -12 -178 -13 -13 -242 -18 -272 -6 -14 5 -16
31 -16 178 0 120 4 176 12 184 8 8 53 12 138 12 85 0 130 -4 138 -12z m600 0
c8 -8 12 -62 12 -178 0 -116 -4 -170 -12 -178 -8 -8 -54 -12 -143 -12 -89 0
-135 4 -143 12 -8 8 -12 62 -12 178 0 116 4 170 12 178 8 8 54 12 143 12 89 0
135 -4 143 -12z m-2640 -640 c14 -14 17 -325 4 -346 -7 -9 -44 -12 -153 -10
l-144 3 -3 170 c-1 93 0 175 2 182 7 18 276 19 294 1z m592 -8 c6 -12 9 -81 8
-182 l-3 -163 -148 -3 c-133 -2 -148 -1 -155 15 -8 22 -8 312 1 336 6 15 23
17 146 17 130 0 141 -2 151 -20z m2915 -165 l0 -180 -150 0 -150 0 -3 169 c-2
117 1 173 9 182 9 12 41 14 153 12 l141 -3 0 -180z m590 0 l0 -180 -144 -3
c-109 -2 -146 1 -153 10 -12 19 -10 316 2 339 10 18 21 19 153 17 l142 -3 0
-180z m-1454 149 c14 -8 11 -338 -3 -352 -14 -14 -265 -17 -286 -4 -9 7 -12
50 -10 183 l3 174 35 6 c40 7 248 1 261 -7z m-1196 -179 l0 -180 -134 -3 c-90
-2 -138 1 -147 9 -11 9 -14 47 -14 169 0 87 3 166 6 174 6 14 25 16 148 14
l141 -3 0 -180z m603 1 c2 -137 -1 -181 -10 -188 -7 -4 -72 -8 -144 -8 -111 0
-133 2 -138 16 -8 22 -8 349 1 358 4 3 70 5 147 4 l141 -3 3 -179z m-2048
-466 c6 -12 9 -85 8 -192 l-3 -173 -150 0 -150 0 -3 179 c-2 123 1 183 9 192
9 11 44 14 145 14 123 0 134 -2 144 -20z m590 0 c6 -12 9 -85 8 -192 l-3 -173
-148 -3 c-133 -2 -148 -1 -155 15 -3 10 -7 90 -7 179 0 122 3 165 14 177 11
14 35 17 147 17 123 0 134 -2 144 -20z m2909 6 c14 -13 15 -39 11 -193 l-5
-178 -150 0 -150 0 -3 173 c-1 107 2 180 8 192 10 18 21 20 142 20 100 0 135
-3 147 -14z m584 1 c16 -11 17 -32 15 -192 l-3 -180 -144 -3 c-109 -2 -146 1
-153 10 -4 7 -8 87 -8 177 0 211 -8 201 155 201 81 0 127 -4 138 -13z m-1917
-121 c11 -16 14 -78 14 -328 l0 -308 -285 0 -285 0 0 308 c0 330 1 338 50 344
14 2 130 3 258 3 220 0 234 -1 248 -19z"/>
<path d="M1786 3971 c-17 -19 -18 -79 -24 -910 -5 -850 -4 -892 13 -911 16
-18 31 -20 141 -20 95 0 126 3 137 15 13 12 16 78 20 402 3 250 8 401 16 424
43 135 240 219 379 159 29 -12 69 -41 91 -65 68 -74 71 -97 71 -520 0 -319 2
-374 16 -393 14 -21 22 -22 143 -22 113 0 130 2 145 19 16 17 17 55 13 467 -3
424 -4 452 -24 512 -52 154 -150 249 -303 293 -26 8 -94 13 -160 12 -139 -1
-235 -27 -329 -92 l-61 -41 0 329 c0 395 15 361 -156 361 -97 0 -113 -2 -128
-19z"/>
<path d="M6912 3974 l-22 -15 0 -904 c0 -884 0 -905 19 -915 11 -5 73 -10 139
-10 102 0 121 3 135 18 16 17 17 94 17 909 l0 890 -23 21 c-21 20 -34 22 -133
22 -83 0 -115 -4 -132 -16z"/>
<path d="M4762 3811 c-11 -6 -15 -54 -19 -193 l-6 -185 -95 -6 c-131 -9 -132
-10 -132 -151 0 -61 4 -116 8 -122 16 -24 55 -34 136 -34 l86 0 0 -355 c0
-329 1 -360 20 -412 38 -109 110 -183 218 -223 83 -31 237 -38 331 -15 97 24
102 33 99 171 l-3 109 -50 -2 c-170 -8 -211 -7 -242 10 -64 34 -64 33 -70 390
l-6 326 167 3 c213 4 206 -1 206 163 0 90 -3 115 -16 126 -11 9 -66 14 -185
17 l-169 5 0 181 c0 128 -4 186 -12 194 -14 14 -245 17 -266 3z"/>
<path d="M3715 3434 c-11 -2 -45 -9 -75 -15 -130 -26 -286 -124 -367 -231
-112 -148 -154 -307 -132 -503 18 -166 83 -301 198 -407 138 -128 365 -197
555 -168 284 43 482 218 553 491 3 13 8 77 10 141 5 134 -15 238 -67 343 -76
155 -235 283 -414 332 -53 14 -226 26 -261 17z m236 -316 c99 -46 182 -156
197 -264 4 -27 4 -85 1 -130 -12 -148 -82 -255 -203 -310 -52 -24 -74 -28
-146 -27 -154 0 -268 69 -326 195 -27 59 -29 71 -29 188 0 114 2 130 26 180
67 144 170 203 340 196 65 -2 99 -9 140 -28z"/>
<path d="M5990 3425 c-89 -18 -142 -38 -213 -82 -203 -123 -311 -354 -294
-627 17 -279 181 -492 442 -576 98 -32 325 -40 428 -15 136 32 277 126 277
183 0 20 -71 109 -120 149 -22 18 -54 16 -82 -7 -70 -54 -243 -89 -350 -70
-84 15 -138 40 -190 88 -48 44 -83 106 -93 165 l-7 37 432 0 c266 0 438 4 450
10 29 15 42 72 41 176 -1 118 -12 166 -64 274 -76 161 -212 264 -391 295 -105
18 -178 18 -266 0z m270 -253 c81 -42 116 -91 139 -193 20 -86 49 -78 -299
-81 -309 -3 -310 -3 -310 18 0 62 70 180 130 220 103 68 248 83 340 36z"/>
<path d="M7918 3430 c-268 -49 -475 -236 -538 -487 -24 -94 -26 -238 -5 -337
49 -233 224 -414 462 -478 101 -27 269 -29 363 -5 229 60 406 234 467 458 18
67 24 238 11 314 -43 249 -232 460 -465 520 -76 19 -231 27 -295 15z m230
-295 c78 -23 150 -87 192 -169 35 -68 35 -71 35 -195 0 -118 -2 -130 -29 -189
-71 -154 -238 -231 -406 -187 -35 9 -77 23 -93 31 -84 44 -154 146 -178 262
-21 103 13 253 76 336 80 106 257 154 403 111z"/>
</g>
</svg>
